<svg xmlns="http://www.w3.org/2000/svg" width="80.1" height="79.9" viewBox="0 0 80.1 79.9"><path d="M34.5 45.6l-3 10h-6.7l11.3-35.4h8.2l11.5 35.4H49l-3.2-10H34.5zm10.1-4.9L41.9 32c-.7-2.2-1.3-4.6-1.8-6.6H40c-.5 2-1.1 4.5-1.7 6.6l-2.7 8.7h9zM62.5 19c.4.5 1.1 1 1.7 1.8.6.8 1.4 1.6 1.9 2.5.5.9 1 1.7 1.2 2.4.2.7.1 1.3-.3 1.5-.7.4-1.5.7-2.2 1.1-.7.4-1.4 1.1-2.6-.6-.6-.8-1-1.6-1.6-2.4-.4-.5-.9-1.2-1.5-1.8-.6-.6-1.1-1.3-1.4-1.8-.5-.8.8-1.6 1.1-2 .4-.5.9-1 1.2-1.5.4-.5 1-.4 1.7.1s1.4 1.3 2.1 2.1c.1.1.7.6.5.3-.4-.5-.9-1.1-1.4-1.6-.2-.3-.5-.5-.8-.7-.3-.2-.6-.4-.8-.6-1.2-.8-1.7-.3-2 .2-.7 1-1.9 1.7-2.2 3-.1.5.5 1.1 1.2 1.8.6.8 1.4 1.4 1.7 1.8 1 1.3 2 2.9 3 4.2 1 1.3 2 .4 2.7 0 .8-.5 2.9-.2 2.1-2.6-1-2.6-2.8-4.8-4.7-6.8-.3-.2-.9-.7-.6-.4z"/><path d="M62.1 21.6c-.4.3-1.4.5-1.3 1.2.1.6 1.3 2 1.7 2.5.1.1.3.4.4.4.4-.1.9-.3 1.3-.5.3-.2.8-.4.4-1.2-.2-.4-.5-.8-.8-1.1-.3-.4-.6-.8-.9-1.1-.6-.6-.9-.6-1-.1 0 .1.1.2.3.4.2.2.3.3.4.2 0-.1.1-.5.3-.2l.5.7c.5.6.9 1.1.6 1.5-.4.5-1 .7-1.6.9.1.1.3.2.4.3-.4-.6-1.5-1.7-1.3-2.2.2-.5.9-.6 1.3-.9 0 0-.1-.2-.3-.4-.2-.3-.4-.4-.4-.4zM68.7 28.4c1 3 1.8 6.3 2.1 9.4.1 2.1-1 1.5-1.6 1.6-1 0-2 .2-3 0-.2 0-.6-1-.7-1.3-.4-.8-.6-1.9-.6-2.9-.2-.8-.4-1.6-.6-2.5-.3-.8-.4-1.6-.4-2.3.1-1.1 1.7-1 2.3-1.2.5-.2.9-.4 1.3-.7.6-.3 1-1.2 1.7 1.3.1.2.4.8.3.4-.2-.7-.7-2.5-1.4-2.8-.5-.2-.8.2-1.1.4-.8.5-1.6.7-2.4 1-.5.2-.9.4-1 .8-.1.4-.2 1 0 1.9.3 1 .7 2.1.9 3.2.1.9.3 1.9.5 2.7.1.9.7 2.1 1.2 2.5.4.3 1.2 0 1.6 0 .7 0 1.5 0 2.2.1.8.1 1-.4.9-2-.2-3.1-1-6.4-2-9.3.1-.1-.4-.7-.2-.3z"/><path d="M68 31.7c-.4.3-1 .3-1.4.6-.2.1-.6.5-.5 1 .1.6.3 1.2.4 1.8 0 .4.1 1.1.4 1.3.3.2.6.1.9.1.3 0 .6-.1.9-.2.3-.1.3-.9.2-1.8-.2-.8-.4-1.7-.5-2.1-.1-.3-.5-.8-.3-.2.1.3.3 1.1.5 1.8s.1 1.4-.1 1.6c-.4.3-1 .3-1.5.2h-.2c.1.2.1.2 0-.1l-.1-.4c0-.3-.4-1.2-.3-1.5.1-.5.6-.7.8-.8.4-.1.8-.2 1.1-.4.1-.2-.2-1-.3-.9zM50.1 11c3.3 1.1 6.6 2.8 9.2 5.1 1 .8-.5 1.9-.7 2.2-.7 1.1-1.2 2.6-3.8.9-.6-.4-1.2-.7-1.7-1-.3-.2-.5-.4-.8-.5-.3-.2-.6-.3-.9-.5-.8-.5-3-.9-3-1.6 0-1.7 1.3-3.2 1.8-4.7.1-.2-.7-.4-.8-.3-.3 1.1-.8 2.1-1.3 3.2-.2.4-1.1 1.9-.1 2.4.4.2.7.3 1.2.5l.9.3c.3.1.5.3.8.4.5.3 1.1.5 1.6.9.6.4 1.3.8 2 1.3.7.4 1.4.8 2 1.1 1.3.7 1.7-.3 2.1-.9.5-.6.8-1.2 1.3-1.7.2-.3.5-.4.6-.8.1-.3-.2-.7-.7-1.1-.4-.4-.9-.7-1.2-.9-2.5-1.8-5.3-3.4-8.3-4.4-.5-.3-.7-.1-.2.1z"/><path d="M52.8 14.2c-.2.4-.3.8-.6 1.1-.1.2-.4.4 0 .7.7.5 1.6 1 2.4 1.3.9.3.9-.7 1.2-1 .2-.2.6-.4-.1-.8-.6-.4-1.7-.8-2.2-1.2h-.3c.3.1.7.4 1 .6.4.3.7.5 1.1.8.2.1.9.4.6.1-.9-.6-1.8-1.4-2.9-1.7 0 0-.4-.1-.3 0 .4.4.8.5 1.3.7.4.2.9.4 1.3.7.3.2-.3.6-.4.7-.1.2-.2.5-.3.7-.2.3-.4.1-.8-.2-.3-.2-.8-.5-.9-.7 0-.2.2-.4.3-.6.2-.3.3-.6.5-.9 0-.1-.8-.4-.9-.3z"/><path fill="none" stroke="#000" stroke-width=".698" stroke-miterlimit="10" d="M15.2 58.8s-.3-.4-.8-1.1c-.3-.3-.5-.8-.8-1.3-.3-.5-.7-1.1-1.1-1.9-1.5-2.8-3.2-7.2-3.4-12.8-.2-2.7.1-5.7.8-8.7.7-3.1 2-6.2 3.8-9.1C17.4 18 23.3 13 30.3 10.7c7-2.3 14.7-2 21.1.6 3.2 1.3 6.1 3 8.5 5 2.4 2 4.4 4.3 5.9 6.6 3 4.6 4.3 9.1 4.8 12.3.1.8.3 1.5.3 2.1 0 .6.1 1.2.1 1.6 0 .9.1 1.3.1 1.3"/><path fill="none" stroke="#000" stroke-width=".798" stroke-miterlimit="10" d="M19.9 55.3l-.6-.9c-.2-.3-.4-.7-.7-1.1-.2-.4-.6-.9-.9-1.5-1.2-2.3-2.6-5.9-2.8-10.4-.2-2.2.1-4.7.7-7.2s1.6-5 3.1-7.4c2.9-4.7 7.8-8.8 13.5-10.7 5.7-1.8 12-1.7 17.2.5 2.6 1 4.9 2.5 6.9 4.1 2 1.7 3.5 3.5 4.8 5.4 2.5 3.8 3.5 7.4 3.9 10 .1.6.2 1.2.2 1.7s0 .9.1 1.3c0 .7.1 1.1.1 1.1"/><path d="M27 12.3c.3-.1.6-.3 1-.5s.8-.4 1.3-.6c.5-.2.9-.4 1.4-.6.5-.2 1-.3 1.5-.4.5-.1 1-.2 1.4-.3.5-.1.9 0 1.2 0 .7.1 1.2.3 1.3.7.2.8.2 1.6.3 2.4.2.8.6 1.8-1.4 2.2-.9.3-1.8.5-2.7.8-.6.2-1.4.6-2.2.9-.8.4-1.6.7-2.2.8-.9.2-1.3-1.3-1.5-1.7-.3-.6-.7-1.1-1-1.7-.8-1 1.3-2.2 3.2-2.9.2-.1.8-.4.4-.3-.3.1-.7.2-1 .3-.3.1-.6.3-1 .5-.6.3-1.2.7-1.8 1.1-1.1.9-.8 1.5-.4 2 .7 1 1 2.4 2.1 3 .2.1.5.1.9 0s.8-.3 1.3-.5c.4-.2.9-.5 1.3-.6.4-.2.8-.3 1-.4.4-.1.8-.3 1.2-.4.4-.1.8-.2 1.3-.3.4-.1.8-.3 1.2-.4.4-.1.8-.2 1.2-.4 1.6-.6 1-1.8.8-2.6-.2-.9.7-2.8-1.8-2.8-1.4 0-2.7.3-4.1.7-.7.2-1.3.5-2 .7-.6.3-1.3.5-1.9.8 0 .2-.6.7-.3.5z"/><path d="M29.4 13.5c.2.5 0 1.4.8 1.6.7.2 2.2-.6 2.9-.8.1 0 .5-.2.5-.3 0-.5 0-.9-.1-1.4-.1-.4-.1-.8-1-.7-.4.1-.9.2-1.3.4s-.9.3-1.3.5c-.7.4-.8.6-.5.9.1.1.9-.3.8-.4-.1-.1-.4-.3-.1-.4l.8-.3c.7-.3 1.4-.5 1.6-.1.3.5.3 1.2.3 1.8l.5-.3c-.3.1-.9.3-1.4.4-.5.2-.9.2-1.2 0-.4-.4-.3-1-.5-1.5 0 .1-.9.5-.8.6zM37.9 9.4c3.1-.1 6.6.2 9.6.9 2.1.5 1.2 1.4 1 2-.3.9-.5 2-.9 2.9-.1.1-1.1.3-1.5.3-.9.1-2-.1-3-.3-.8-.2-1.7-.1-2.5-.2-.9-.1-1.7-.1-2.3-.4-1-.5-.4-1.9-.4-2.5 0-.5-.1-1-.2-1.5-.1-.7-.8-1.3 1.8-1.2.2 0 .9-.2.5-.2-.8 0-2.6 0-3.1.4-.4.4-.1.8 0 1.1.2.9.2 1.7.2 2.6 0 1 .4 1.7 2.2 1.8h1.6c.6 0 1.1 0 1.7.1.9.2 1.9.3 2.7.4.9.2 2.2-.1 2.8-.4.4-.3.4-1.1.5-1.5.2-.7.5-1.4.7-2.1.3-.7 0-1.2-1.6-1.5-1.5-.4-3.1-.6-4.7-.8-1.6-.1-3.2-.2-4.8-.2 0 .1-.7.3-.3.3z"/><path d="M40.8 11.1c.2.5 0 1 .1 1.5.1.2.3.7.8.8.6.1 1.3.1 1.9.2.4.1 1.1.2 1.3 0 .3-.2.3-.6.3-.8.1-.3.2-.6.1-1 0-.3-.8-.6-1.7-.7-.7-.1-1.7-.1-2.1-.1-.3 0-.9.2-.3.2.4 0 1.1 0 1.9.1.7.1 1.4.3 1.5.6.2.5-.1 1-.2 1.5 0 .1-.1.1-.1.2.2 0 .2-.1-.1-.1l-.4-.1c-.2 0-.5-.1-.8-.1-.3 0-.6 0-.7-.1-.4-.2-.5-.7-.5-1 0-.4.1-.8 0-1.2-.2-.1-1 0-1 .1zM15.6 21.6c2.1-2.8 4.7-5.3 7.7-7.2 1.1-.6 1.7 1.1 1.9 1.4.4.5.9 1 1.1 1.6.1.6-.2 1.3-1.4 2.3-.5.4-1 .8-1.5 1.3-.5.4-1 .8-1.5 1.3-.3.3-.8 1-1.3 1.5-.4.5-.8 1-1.2.9-1.6-.5-2.6-2.2-3.9-3.2-.2-.1-.6.6-.5.7.9.7 1.8 1.4 2.6 2.2.3.3 1.4 1.6 2.2.9.3-.3.5-.6.8-1 .8-1 1.5-1.8 2.6-2.6.3-.2.6-.5.9-.7.3-.3.6-.5.9-.8.6-.5 1.2-1.1 1.7-1.6 1-1 .2-1.7-.2-2.3-.4-.6-.9-1.2-1.2-1.8-.2-.3-.2-.6-.6-.8-.4-.2-2 .7-2.5 1.2-2.6 1.8-4.8 4-6.8 6.5-.3.3-.2.6.2.2z"/><path d="M19.4 20l.9.9c.1.2.3.5.7.2.7-.4 1.5-1.2 2-1.9.6-.7-.3-1.1-.6-1.4-.2-.2-.1-.7-.8-.2-.6.5-1.2 1.5-1.8 1.7l-.1.3c.2-.2.6-.5.9-.7.4-.3.7-.6 1.1-.9.1-.2.7-.7.3-.5-.9.7-1.9 1.3-2.5 2.2 0 0-.2.4-.1.3.9-.5 1.3-1.4 2.1-2 .3-.2.5.5.6.6.2.2.4.3.6.5.2.2-.1.4-.4.8-.2.2-.7.7-.9.6-.2 0-.3-.3-.4-.5-.2-.3-.5-.5-.7-.8-.4 0-1 .7-.9.8zM9.5 43.9c-.1-.6-.2-1.5-.3-2.5-.1-1-.1-2.1 0-3.1 0-1 .3-2 .5-2.6.3-.7.6-1.1 1.1-1 .8.1 1.6.4 2.4.4.8.1 1.9-.1 1.7 2.1-.1.9-.1 1.9-.1 2.9 0 .6.1 1.5.1 2.4 0 .9.2 1.7.1 2.3-.2.9-1.7.8-2.1.9-.6.1-1.3.3-1.9.5-.6.2-1-.3-1.3-1.1-.1-.4-.3-.9-.3-1.4-.1-.5-.1-1-.1-1.5 0-.2-.2-.9-.2-.5 0 .7 0 1.4.1 2.1.1.7.3 1.4.5 2 .2.7.5 1 .8 1.1.3.1.6 0 .9-.1 1.1-.4 2.6-.2 3.5-1 .3-.3.3-1.2.2-2.2 0-.2-.1-.5-.1-.7 0-.2 0-.5-.1-.7 0-.4-.1-.8-.1-1.1 0-1.7.2-3.5.1-5.1-.1-.8-.4-1.2-.8-1.4-.4-.2-1-.2-1.3-.2-.5-.1-1.1-.4-1.7-.5-.6-.1-1.2.1-1.6 1.3-.2.7-.4 1.3-.5 2-.1.7-.1 1.4-.1 2.1v1l.1 1c.1.7.1 1.4.2 2.1.1.1.4.8.3.5z"/><path d="M11.4 42c.5 0 1.4.4 1.8-.2.2-.3.2-.9.2-1.5v-1.6c0-.1 0-.5-.1-.5-.4-.1-.9-.3-1.4-.3-.4-.1-.8-.1-1 .7-.1.4-.1.9-.1 1.3 0 .5 0 .9.1 1.4.1.8.3 1 .7.7.1-.1-.1-1-.2-.9-.1 0-.4.3-.4 0v-.7c0-.8 0-1.4.5-1.6.6-.2 1.2.1 1.8.3l-.1-.5V40c0 .5-.1 1-.3 1.1-.5.3-1.1 0-1.6 0-.1 0 0 .9.1.9zM10.2 32.6c.4-1.5 1.1-3 1.7-4.5.4-.7.7-1.5 1.1-2.2l1.2-2.1c.5-.9 1-1.1 1.3-1 .3.1.6.5.9.6.8.6 1.7 1.1 2.4 1.8.1.1 0 .3 0 .6s-.1.7-.1.8c-.1.5-.3.9-.5 1.4-.2.5-.5.9-.7 1.4-.2.3-.4.7-.5 1.1-.1.4-.3.8-.5 1.2-.4.8-.6 1.6-1.1 2.1-.7.8-1.9-.2-2.5-.4l-1.5-.3c-.7-.1-1.5.4-.6-2.1.1-.2.2-.9 0-.5-.3.7-.8 2.5-.6 3 .2.5.7.3 1.1.3.9.1 1.7.4 2.5.6 1 .3 1.7.1 2.4-1.6.2-.5.4-1 .6-1.6.2-.5.3-1.1.6-1.5.5-.8.8-1.7 1.3-2.5.2-.4.3-1 .4-1.5.1-.5.2-1 .1-1.3-.1-.5-.9-.7-1.2-1-.6-.4-1.2-.9-1.7-1.4-.6-.5-1.1-.3-2 1-1.7 2.6-3 5.8-4 8.7-.2.6-.2 1.3-.1.9z"/><path d="M12.7 30.4c.5 0 1 .3 1.5.3.2 0 .8-.1 1-.5.2-.5.5-1.1.8-1.7.2-.3.5-1 .4-1.3-.1-.3-.4-.4-.7-.6-.3-.2-.5-.3-.9-.4-.3-.1-.8.6-1.2 1.4-.2.4-.4.8-.6 1.1-.1.4-.2.7-.3.9-.1.3-.1.9.1.4.2-.7 1.1-3 1.7-3 .5 0 1 .4 1.3.7.1 0 .1.1.2.2 0-.2 0-.2-.1.1l-.2.4c-.1.3-.5 1.2-.7 1.4-.3.3-.8.2-1.1.1-.4-.1-.7-.3-1.1-.3 0 0-.2.8-.1.8zM14.7 57.7c-2-2.9-3.6-6.2-4.3-9.6-.3-1.2 1.6-1.2 1.9-1.3 1.2-.4 2.6-1.4 3.6 1.6.3.6.5 1.2.7 1.8.3.6.5 1.2.8 1.8.1.5.7 1.1 1 1.7.4.6.6 1.1.5 1.4-1 1.4-2.9 1.8-4.3 2.7-.2.1.4.7.5.6.9-.7 1.9-1.2 2.9-1.8.3-.2 2-.9 1.5-1.8-.2-.4-.4-.7-.7-1.1-.4-.5-.7-1-1-1.5-.2-.5-.5-1.1-.7-1.7-.5-1.4-1.1-3-1.8-4.3-.7-1.2-1.5-.7-2.3-.6l-2.1.6c-.3.1-.7 0-1 .3-.4.3.1 2.1.3 2.7 1 3 2.3 5.9 4 8.5.5.5.8.4.5 0z"/><path d="M14.4 53.5c.4-.2.7-.4 1.1-.5.2-.1.6-.1.4-.6-.2-.8-.8-1.8-1.2-2.4-.5-.8-1.1 0-1.5.1-.3.1-.7-.1-.4.7.2.7 1 1.6 1.1 2.3l.2.2c-.2-.2-.3-.8-.4-1-.2-.4-.3-.9-.5-1.3-.1-.2-.5-.9-.4-.4.3 1.1.6 2.2 1.3 3.1l.2.2c-.1-1-1-1.6-1.2-2.6-.1-.3.6-.3.7-.4.2-.1.4-.3.7-.4.3-.1.4.2.6.6.1.3.5.9.3 1.1-.1.2-.4.2-.6.3-.3.1-.7.3-1 .5.1-.2.5.5.6.5zM33.9 70.4c-.6-.1-1.5-.3-2.4-.5-1-.2-2-.6-3-.9-1-.4-1.8-.9-2.3-1.4-.6-.5-.8-.9-.7-1.3.3-.8.8-1.4 1.2-2.2.2-.4.3-.8.6-1.1.3-.2.9-.3 1.9.1.9.4 1.8.7 2.7 1 .6.3 1.5.4 2.3.6.8.3 1.7.4 2.2.7.8.4.3 1.8.2 2.3-.1.7-.1 1.3-.1 2 0 .6-.6.9-1.4.9-.4 0-.9 0-1.4-.1-.5-.1-1-.2-1.5-.4-.2 0-.9-.1-.5 0 .7.2 1.4.4 2 .5.7.1 1.4.1 2.1.1 1.4 0 1.5-.7 1.5-1.3 0-1.2.6-2.5.1-3.7-.2-.4-1-.7-2-.8-1-.2-2-.4-2.4-.5-.8-.2-1.6-.6-2.4-.9-.8-.3-1.6-.7-2.4-.8-1.6-.5-1.9.8-2.2 1.5-.4.8-2.2 1.8-.2 3.4 1.1.7 2.4 1.4 3.7 1.8 1.3.5 2.7.8 4 1.1.1 0 .8 0 .4-.1z"/><path d="M32.8 68c.2-.5.9-1.2.4-1.8-.2-.3-.8-.4-1.3-.6l-1.5-.5c-.1 0-.5-.1-.5 0-.3.4-.5.8-.7 1.2-.2.4-.4.8.4 1.2.4.2.9.3 1.3.5s.9.3 1.4.4c.8.1 1 0 .9-.5 0-.1-1-.2-.9-.1 0 .1.2.4-.1.4-.3-.1-.5-.1-.8-.2-.8-.2-1.4-.5-1.3-.9 0-.6.5-1.1.8-1.6h-.5c.7.2 2.2.6 2.3 1.1.1.5-.4 1-.5 1.5-.4-.1.5.1.6-.1zM23.5 66.2c-2.5-1.8-5.1-4.1-7.2-6.5-1.3-1.7-.1-1.8.4-2.2.8-.6 1.5-1.3 2.5-1.7.2-.1 1 .5 1.3.7.4.2.8.5 1.2.9.4.4.7.8 1.1 1.1 1.1 1.1 2.8 2.2 3.5 3.4.6.9-.8 1.8-1.2 2.3-.3.4-.5.8-.7 1.3-.1.3-.2.7-.4.8-.1.1-.3 0-.6-.1s-.7-.4-1.1-.8c-.2-.1-.8-.4-.5-.2.3.3.8.7 1.3 1 .5.3 1.1.5 1.4.5.5-.1.5-.6.7-.9.4-.8.9-1.5 1.4-2.2.6-.9.7-1.6-.7-2.7-.4-.4-.8-.7-1.3-1-.5-.3-.9-.7-1.2-1.1-.6-.6-1.3-1.4-2-2l-1.2-.9c-.4-.3-.9-.4-1.2-.5-.5 0-1 .6-1.3.9l-1.8 1.2c-.7.4-.6.9.4 2.2 2 2.4 4.5 4.6 7 6.5-.2 0 .5.3.2 0z"/><path d="M22.2 63.1c.1-.5.6-.8.8-1.3.1-.2.2-.7-.2-1.1-.4-.4-.9-.9-1.4-1.3-.3-.2-.7-.8-1-.8-.3 0-.6.3-.8.5-.2.2-.5.4-.7.7-.1.3.3 1 .9 1.6.6.6 1.3 1.2 1.6 1.5.3.2.8.3.4 0-.6-.4-2.5-2-2.3-2.5.2-.5.7-.8 1.1-1.1.1 0 .1-.1.2-.1-.2-.1-.2-.1 0 .1l.3.3c.2.2 1 .8 1.1 1.1.2.4-.1.9-.2 1.1-.2.3-.5.6-.7 1 .1.1.8.5.9.3zM48.7 69.9c-3.4 1-7 1.4-10.5 1.1-1.3-.1-.7-1.9-.7-2.2 0-1.2-.5-2.9 2.6-2.9 1.4-.2 2.6-.1 4-.3 1 0 3-1 3.4-.4 1 1.4.8 3.3 1.2 4.9.1.2.8 0 .8-.2-.3-1.1-.6-2.2-.8-3.3-.1-.4-.2-2.1-1.2-2-.5 0-.8.1-1.2.3-.6.2-1.2.4-1.8.4-.6.1-1.2.1-1.8.2-.7 0-1.5 0-2.3.1-.8 0-1.6.1-2.3.2-1.4.3-1.2 1.2-1.2 1.9-.1.7 0 1.5-.1 2.2 0 .3-.2.6 0 1 .2.5 2 .5 2.7.5.8.1 1.6 0 2.3 0 .8 0 1.6 0 2.3-.2l2.3-.3 2.3-.6c.4-.3.5-.6 0-.4z"/><path d="M44.6 68.8c-.1-.4-.1-.8-.2-1.2 0-.2.1-.6-.4-.6-.4 0-.9 0-1.4.1-.5 0-1 .1-1.3.2-.9.3-.4 1.1-.4 1.5 0 .3-.3.7.5.6.8 0 1.9-.4 2.5-.3l.2-.2c-.3.1-.8.1-1.1.1h-1.4c-.2 0-1 .2-.5.2h1.7c.6 0 1.1-.1 1.7-.3 0 0 .4-.2.2-.2-1-.2-1.8.4-2.9.3-.3 0-.1-.7-.1-.8 0-.3-.1-.5-.1-.8 0-.3.3-.3.8-.3.3 0 1-.1 1.1 0 .2.2.1.5.1.6 0 .4.1.7.1 1.1.1.3.9.1.9 0z"/><path fill="none" stroke="#000" stroke-width=".569" stroke-miterlimit="10" d="M71.2 40.7v.9c-.1.6 0 1.4-.2 2.5-.3 2.1-.9 5.2-2.3 8.5-1.4 3.4-3.8 7.1-7.1 10.2C58.3 66 54 68.6 49.3 70c-4.7 1.4-9.7 1.7-14.2.9-4.5-.7-8.6-2.5-11.6-4.5-.8-.4-1.5-1-2.1-1.5-.3-.3-.7-.5-1-.7-.3-.3-.6-.5-.9-.8-.5-.5-1.1-.9-1.5-1.4-.4-.5-.8-.9-1.2-1.3-.7-.8-1.2-1.5-1.6-1.9-.3-.5-.5-.7-.5-.7"/><path fill="none" stroke="#000" stroke-width=".651" stroke-miterlimit="10" d="M65.4 40.6v.7c0 .5 0 1.2-.2 2-.2 1.7-.7 4.2-1.9 6.9s-3.1 5.7-5.8 8.3c-2.7 2.6-6.2 4.7-10 5.9-3.8 1.1-7.9 1.3-11.6.7-3.7-.6-6.9-2-9.4-3.6-.7-.4-1.2-.8-1.7-1.2-.3-.2-.5-.4-.8-.6-.2-.2-.5-.4-.7-.6-.4-.4-.9-.8-1.2-1.2-.4-.4-.7-.7-1-1.1-.6-.6-1-1.2-1.3-1.6-.3-.4-.4-.6-.4-.6"/><path d="M66.8 55.6c-.3.5-.7 1.3-1.2 2.2-.6.8-1.1 1.8-1.8 2.5s-1.4 1.4-2 1.8c-.6.4-1.2.5-1.5.2-.6-.5-1.1-1.2-1.7-1.8-.6-.6-1.5-1.1-.1-2.7.6-.8 1.3-1.4 1.8-2.2.4-.5.9-1.2 1.3-2 .5-.7.9-1.4 1.3-1.9.6-.7 1.8.3 2.2.5.6.3 1.2.5 1.8.8.6.2.6.8.4 1.7-.2.8-.8 1.7-1.4 2.6-.1.1-.4.8-.2.5.4-.6.8-1.2 1.1-1.8.2-.3.3-.6.5-.9.1-.3.2-.6.3-1 .4-1.4-.2-1.7-.8-1.9-1.1-.4-2.2-1.4-3.5-1.3-.5 0-.9.8-1.4 1.6-.5.8-1 1.8-1.3 2.1-1 1.4-2.2 2.7-3.2 4-1 1.4.2 2 .8 2.6.7.6 1 2.7 3.1 1.3 2.2-1.6 3.8-4 5.2-6.4.3-.1.5-.8.3-.5z"/><path d="M64.2 56c-.4-.3-.9-1.2-1.6-.9-.6.3-1.5 1.8-1.9 2.4-.1.1-.3.4-.2.5.3.4.5.8.9 1.1.3.3.6.6 1.3 0 .3-.3.6-.7.8-1.1.3-.4.6-.8.8-1.2.4-.7.3-1-.2-1-.1 0-.2.2-.3.4-.1.2-.2.4-.1.4s.5 0 .3.2l-.5.7c-.5.7-.8 1.2-1.3 1-.6-.2-.9-.8-1.3-1.3-.1.2-.1.3-.2.5.4-.6 1.2-1.9 1.8-1.8.6.1.8.7 1.2 1 .2 0 .7-.8.5-.9zM59.6 64.2c-2.5 1.8-5.5 3.6-8.4 4.7-2 .8-1.8-.5-1.9-1.1-.4-.8-.9-1.8-1-2.8 0-.2.8-.8 1-1.1.2-.2.4-.3.6-.4.2-.1.4-.3.6-.4.5-.2.9-.4 1.4-.6.7-.3 1.4-.9 2.2-1.3.7-.5 1.4-.9 2.1-1 1.1-.2 1.4 1.3 1.8 1.8.3.4.6.8 1 1.1.5.5 1.4.6-.8 2-.2.1-.7.7-.3.4.7-.4 2.2-1.4 2.3-2.1.1-.5-.4-.7-.7-.9-.7-.6-1.1-1.3-1.7-2-.6-.9-1.2-1.1-2.8-.2-.9.6-1.8 1.3-2.8 1.8-.8.3-1.7.8-2.5 1.2-.8.4-1.8 1.3-2 1.9-.2.5.3 1.1.4 1.5l.6 2.1c.1.4.3.6.6.7.3 0 .9-.1 1.6-.4 2.9-1.1 5.9-2.8 8.4-4.6.2 0 .6-.5.3-.3z"/><path d="M56.2 64.5c-.5-.3-.6-.8-1-1.2-.2-.1-.6-.4-1.1-.2-.5.2-1.1.7-1.6.9-.3.2-1 .4-1.1.7-.1.3.1.6.2.9.1.3.2.6.5.8.2.2 1 0 1.8-.3.8-.4 1.5-.9 1.9-1.1.3-.2.6-.7.1-.4-.3.2-1 .6-1.6 1-.6.4-1.3.5-1.5.4-.4-.3-.5-.9-.7-1.4v-.2c-.2.2-.1.2.1 0l.4-.2c.3-.1 1.1-.7 1.4-.7.4-.1.8.3 1 .6.2.3.4.7.7.9 0 .1.7-.4.5-.5zM70.9 41.5c-.1 3.5-.8 7.1-2.2 10.3-.5 1.2-2 0-2.3-.1-.6-.2-1.4-.3-1.8-.7-.4-.4-.6-1.2-.2-2.7.2-.7.3-1.3.5-1.9l.3-.9c.1-.3.1-.6.2-1 .1-.5.2-1.3.2-2s.1-1.3.4-1.4c1.6-.5 3.4.3 5.1.4.2 0 .2-.8 0-.8-1.1 0-2.3-.2-3.4-.3-.4-.1-2.1-.5-2.3.5-.1.4-.1.8-.1 1.3.1.6-.1 1.2-.2 1.8-.1.6-.2 1.2-.4 1.8-.3.7-.4 1.5-.6 2.2-.2.8-.4 1.5-.5 2.2-.3 1.4.8 1.5 1.4 1.8.7.3 1.4.5 2 .8.3.1.5.4.9.4.3 0 .6-.4.8-.9.2-.5.4-1.1.5-1.4 1-3 1.7-6.1 1.8-9.2.3-.6 0-.8-.1-.2z"/><path d="M68.7 45c-.4-.1-.8-.1-1.2-.2-.2-.1-.5-.2-.7.2-.2.8-.5 1.9-.5 2.7 0 1 .9.7 1.3.8.3.1.5.5.8-.3.2-.7.2-1.9.5-2.5l-.1-.3c0 .3-.2.8-.3 1.1-.1.4-.3.9-.4 1.3-.1.2-.1 1 .1.6.3-1.1.9-2.1.8-3.3 0 0 0-.4-.1-.3-.2.5-.3.9-.3 1.4-.1.5-.1.9-.3 1.4-.1.3-.7-.1-.8-.1-.2-.1-.5 0-.8-.1-.3-.1-.2-.4-.1-.8.1-.3.2-.9.4-1.1.2-.1.5.1.6.1.3.1.7.2 1.1.2 0 .1.1-.8 0-.8z"/><g><path d="M44.4 6.8c.4-2 .3-4 .1-6.1 0-.1-.1-.1-.2-.2-2.4-.8-4.8-.9-7.1.2-2.4 1.1-3.2 3.7-3.3 6.1 0 .4 2 .1 2-.5C36 3.9 37 1 39.8.9c.7 0 1.4.1 2 .3.8.2.7.8.8 1.5.1 1.5.1 3-.2 4.4-.1.6 1.9.3 2-.3z"/></g><g><path d="M30.5 7.9c-.4-2-1.4-3.8-2.3-5.6-.1-.1-.1-.1-.2-.1-2.5.3-4.7 1.2-6.4 3.1-1.7 2-1.4 4.6-.5 6.9.2.4 1.9-.7 1.6-1.3-.9-2.3-1.2-5.3 1.3-6.5.6-.3 1.3-.5 2-.6.8-.2 1 .4 1.3 1.1.7 1.3 1.3 2.7 1.6 4.1 0 .6 1.7-.5 1.6-1.1z"/></g><g><path d="M18.2 14.7c-1.2-1.6-2.8-2.9-4.4-4.2h-.3c-2.2 1.3-3.8 3-4.6 5.4-.8 2.5.6 4.8 2.3 6.5.3.3 1.4-1.4.9-1.8-1.7-1.7-3.2-4.3-1.4-6.5.4-.5 1-1 1.6-1.3.7-.5 1.1 0 1.6.4 1.2.9 2.3 1.9 3.2 3.1.4.5 1.4-1.2 1.1-1.6z"/></g><g><path d="M9.7 25.8c-1.8-1-3.8-1.5-5.7-2-.1 0-.2.1-.2.1-1.5 2-2.3 4.3-2 6.8.3 2.6 2.5 4.2 4.8 5 .4.2.7-1.8.1-2.1-2.3-.9-4.7-2.7-4-5.4.2-.7.5-1.3.9-1.9.4-.7 1-.5 1.7-.3 1.4.4 2.9.8 4.2 1.6.4.5.7-1.5.2-1.8z"/></g><g><path d="M6.5 39.4c-2-.2-4.1.1-6 .5-.1 0-.1.1-.1.2-.5 2.5-.3 4.9 1 7 1.3 2.2 4 2.8 6.4 2.7.4 0-.1-2-.7-1.9-2.4.1-5.4-.5-5.8-3.3-.1-.7 0-1.4 0-2 .1-.8.7-.8 1.4-.9 1.5-.2 3-.4 4.4-.3.5 0-.1-1.9-.6-2z"/></g><g><path d="M9.1 53.2c-1.9.6-3.6 1.8-5.3 2.9-.1.1-.1.2 0 .2.5 2.5 1.7 4.6 3.8 6 2.1 1.5 4.8.9 6.9-.2.4-.2-.9-1.8-1.5-1.5-2.2 1.1-5.1 1.7-6.6-.7-.4-.6-.6-1.2-.8-1.9-.2-.8.3-1 .9-1.4 1.2-.8 2.5-1.6 3.9-2 .5 0-.8-1.6-1.3-1.4z"/></g><g><path d="M17 64.7c-1.5 1.4-2.6 3.1-3.7 4.8 0 .1 0 .2.1.2 1.5 2 3.4 3.5 5.9 4 2.6.5 4.7-1.1 6.2-3 .3-.3-1.5-1.3-1.9-.7-1.5 1.9-4 3.6-6.3 2.1-.6-.4-1.1-.9-1.5-1.4-.5-.6-.1-1.1.3-1.7.8-1.2 1.7-2.5 2.8-3.5.4-.3-1.4-1.2-1.9-.8z"/></g><g><path d="M29 72c-.8 1.9-1.1 3.9-1.4 5.9 0 .1.1.2.2.2 2.2 1.3 4.5 1.8 7 1.3 2.5-.6 3.9-2.9 4.5-5.3.1-.4-1.9-.6-2.1.1-.6 2.3-2.1 4.9-4.9 4.5-.7-.1-1.3-.4-1.9-.7-.8-.4-.5-.9-.4-1.6.2-1.5.5-2.9 1.1-4.3.1-.6-1.9-.6-2.1-.1z"/></g><g><path d="M42.9 73.8c0 2 .6 4 1.1 6 .1.1.1.1.2.1 2.5.3 4.9-.2 6.9-1.7 2.1-1.6 2.3-4.2 2-6.6-.1-.4-2 .3-1.8.9.4 2.4 0 5.4-2.7 6.1-.7.2-1.4.2-2 .2-.8 0-.9-.6-1.1-1.3-.4-1.4-.7-2.9-.7-4.4-.1-.6-1.9.1-1.9.7z"/></g><g><path d="M56.3 69.8c.8 1.8 2.2 3.4 3.4 5 .1.1.2.1.2 0 2.4-.8 4.4-2.1 5.6-4.4 1.3-2.3.4-4.8-.9-6.9-.2-.4-1.7 1-1.3 1.6 1.3 2 2.2 4.9 0 6.7-.5.4-1.2.7-1.8 1-.8.3-1-.2-1.5-.8-.9-1.2-1.8-2.4-2.4-3.7-.1-.5-1.6.9-1.3 1.5z"/></g><g><path d="M66.9 60.7c1.5 1.3 3.4 2.3 5.2 3.1.1 0 .2 0 .2-.1 1.9-1.7 3.1-3.7 3.4-6.3.2-2.6-1.6-4.6-3.6-5.9-.4-.2-1.1 1.6-.5 2 2 1.3 4 3.6 2.8 6.1-.3.6-.8 1.1-1.2 1.6-.6.6-1 .2-1.7-.1-1.3-.7-2.6-1.4-3.7-2.4-.6-.3-1.3 1.6-.9 2z"/></g><g><path d="M72.9 48c1.9.6 4 .7 6 .8.1 0 .2-.1.2-.2 1-2.3 1.4-4.7.5-7.1-.8-2.5-3.3-3.5-5.7-3.9-.4-.1-.3 1.9.3 2 2.4.4 5.1 1.6 5 4.4 0 .7-.2 1.4-.5 2-.3.8-.8.6-1.6.6-1.5-.1-3-.2-4.4-.7-.5-.1-.4 1.9.2 2.1z"/></g><g><path d="M73.2 34c2-.2 3.9-1 5.8-1.7.1-.1.1-.1.1-.2 0-2.5-.7-4.8-2.4-6.7-1.8-1.9-4.5-1.9-6.8-1.3-.4.1.5 1.9 1.1 1.7 2.3-.6 5.3-.6 6.4 2 .2.6.3 1.3.4 2 .1.8-.5.9-1.2 1.2-1.4.5-2.8 1-4.3 1.2-.6.1.4 1.9.9 1.8z"/></g><g><path d="M67.8 21.1c1.7-1 3.2-2.5 4.6-3.9v-.3c-1-2.3-2.6-4.1-4.9-5.1-2.4-1-4.9.1-6.7 1.6-.3.3 1.2 1.6 1.7 1.1 1.9-1.5 4.6-2.7 6.6-.7.5.5.8 1.1 1.2 1.7.4.7-.1 1.1-.6 1.6-1 1-2.2 2.1-3.4 2.8-.6.2 1 1.5 1.5 1.2z"/></g><g><path d="M57.7 11.4c1.2-1.6 1.9-3.6 2.6-5.5 0-.1 0-.2-.1-.2C58.3 4 56.2 3 53.6 3c-2.6 0-4.4 2.1-5.5 4.2-.2.4 1.7.9 2 .3 1.1-2.2 3.1-4.4 5.8-3.4.6.2 1.2.7 1.8 1.1.7.5.3 1 .1 1.7-.5 1.4-1.1 2.8-2 4-.4.5 1.5 1 1.9.5z"/></g></svg>